<mxfile host="app.diagrams.net" agent="Mozilla/5.0 (Macintosh; Intel Mac OS X 10_15_7) AppleWebKit/537.36 (KHTML, like Gecko) Chrome/129.0.0.0 Safari/537.36" version="24.7.16">
  <diagram name="Page-1" id="NzpP9i2TKMvt96Eljstn">
    <mxGraphModel dx="2901" dy="1180" grid="1" gridSize="10" guides="1" tooltips="1" connect="1" arrows="1" fold="1" page="1" pageScale="1" pageWidth="827" pageHeight="1169" math="0" shadow="0">
      <root>
        <mxCell id="0" />
        <mxCell id="1" parent="0" />
        <mxCell id="4glLAtaTAABjFDv6GbT7-25" value="task.create-in-transaction.user" style="swimlane;fontStyle=0;childLayout=stackLayout;horizontal=1;startSize=30;fillColor=none;horizontalStack=0;resizeParent=1;resizeParentMax=0;resizeLast=0;collapsible=1;marginBottom=0;whiteSpace=wrap;html=1;" parent="1" vertex="1">
          <mxGeometry x="120" y="600" width="140" height="186" as="geometry" />
        </mxCell>
        <mxCell id="4glLAtaTAABjFDv6GbT7-26" value="+ id: ObjectId" style="text;strokeColor=none;fillColor=none;align=left;verticalAlign=top;spacingLeft=4;spacingRight=4;overflow=hidden;rotatable=0;points=[[0,0.5],[1,0.5]];portConstraint=eastwest;whiteSpace=wrap;html=1;" parent="4glLAtaTAABjFDv6GbT7-25" vertex="1">
          <mxGeometry y="30" width="140" height="26" as="geometry" />
        </mxCell>
        <mxCell id="4glLAtaTAABjFDv6GbT7-27" value="+ firstname: String" style="text;strokeColor=none;fillColor=none;align=left;verticalAlign=top;spacingLeft=4;spacingRight=4;overflow=hidden;rotatable=0;points=[[0,0.5],[1,0.5]];portConstraint=eastwest;whiteSpace=wrap;html=1;" parent="4glLAtaTAABjFDv6GbT7-25" vertex="1">
          <mxGeometry y="56" width="140" height="26" as="geometry" />
        </mxCell>
        <mxCell id="4glLAtaTAABjFDv6GbT7-28" value="+ lastname: String" style="text;strokeColor=none;fillColor=none;align=left;verticalAlign=top;spacingLeft=4;spacingRight=4;overflow=hidden;rotatable=0;points=[[0,0.5],[1,0.5]];portConstraint=eastwest;whiteSpace=wrap;html=1;" parent="4glLAtaTAABjFDv6GbT7-25" vertex="1">
          <mxGeometry y="82" width="140" height="26" as="geometry" />
        </mxCell>
        <mxCell id="4glLAtaTAABjFDv6GbT7-119" value="+ email: String" style="text;strokeColor=none;fillColor=none;align=left;verticalAlign=top;spacingLeft=4;spacingRight=4;overflow=hidden;rotatable=0;points=[[0,0.5],[1,0.5]];portConstraint=eastwest;whiteSpace=wrap;html=1;" parent="4glLAtaTAABjFDv6GbT7-25" vertex="1">
          <mxGeometry y="108" width="140" height="26" as="geometry" />
        </mxCell>
        <mxCell id="4glLAtaTAABjFDv6GbT7-120" value="+ username: String" style="text;strokeColor=none;fillColor=none;align=left;verticalAlign=top;spacingLeft=4;spacingRight=4;overflow=hidden;rotatable=0;points=[[0,0.5],[1,0.5]];portConstraint=eastwest;whiteSpace=wrap;html=1;" parent="4glLAtaTAABjFDv6GbT7-25" vertex="1">
          <mxGeometry y="134" width="140" height="26" as="geometry" />
        </mxCell>
        <mxCell id="4glLAtaTAABjFDv6GbT7-121" value="+ password: String" style="text;strokeColor=none;fillColor=none;align=left;verticalAlign=top;spacingLeft=4;spacingRight=4;overflow=hidden;rotatable=0;points=[[0,0.5],[1,0.5]];portConstraint=eastwest;whiteSpace=wrap;html=1;" parent="4glLAtaTAABjFDv6GbT7-25" vertex="1">
          <mxGeometry y="160" width="140" height="26" as="geometry" />
        </mxCell>
        <mxCell id="4glLAtaTAABjFDv6GbT7-57" value="task.direct.exchange" style="shape=hexagon;perimeter=hexagonPerimeter2;whiteSpace=wrap;html=1;fixedSize=1;" parent="1" vertex="1">
          <mxGeometry x="200" y="930" width="120" height="80" as="geometry" />
        </mxCell>
        <mxCell id="4glLAtaTAABjFDv6GbT7-58" value="event.direct.exchange" style="shape=hexagon;perimeter=hexagonPerimeter2;whiteSpace=wrap;html=1;fixedSize=1;" parent="1" vertex="1">
          <mxGeometry x="1110" y="1430" width="120" height="80" as="geometry" />
        </mxCell>
        <mxCell id="4glLAtaTAABjFDv6GbT7-59" value="queue.user.creation" style="shape=parallelogram;perimeter=parallelogramPerimeter;whiteSpace=wrap;html=1;fixedSize=1;" parent="1" vertex="1">
          <mxGeometry x="650" y="840" width="120" height="60" as="geometry" />
        </mxCell>
        <mxCell id="4glLAtaTAABjFDv6GbT7-60" value="" style="endArrow=classic;html=1;rounded=0;" parent="1" source="4glLAtaTAABjFDv6GbT7-57" target="4glLAtaTAABjFDv6GbT7-59" edge="1">
          <mxGeometry relative="1" as="geometry">
            <mxPoint x="410" y="950" as="sourcePoint" />
            <mxPoint x="610" y="950" as="targetPoint" />
          </mxGeometry>
        </mxCell>
        <mxCell id="4glLAtaTAABjFDv6GbT7-61" value="task.create.user" style="edgeLabel;resizable=0;html=1;;align=center;verticalAlign=middle;" parent="4glLAtaTAABjFDv6GbT7-60" connectable="0" vertex="1">
          <mxGeometry relative="1" as="geometry" />
        </mxCell>
        <mxCell id="4glLAtaTAABjFDv6GbT7-62" value="" style="endArrow=classic;html=1;rounded=0;" parent="1" source="4glLAtaTAABjFDv6GbT7-57" target="4glLAtaTAABjFDv6GbT7-64" edge="1">
          <mxGeometry relative="1" as="geometry">
            <mxPoint x="360" y="1076" as="sourcePoint" />
            <mxPoint x="550" y="1050" as="targetPoint" />
          </mxGeometry>
        </mxCell>
        <mxCell id="4glLAtaTAABjFDv6GbT7-63" value="task.delete.user" style="edgeLabel;resizable=0;html=1;;align=center;verticalAlign=middle;" parent="4glLAtaTAABjFDv6GbT7-62" connectable="0" vertex="1">
          <mxGeometry relative="1" as="geometry" />
        </mxCell>
        <mxCell id="4glLAtaTAABjFDv6GbT7-64" value="queue.user.deletion" style="shape=parallelogram;perimeter=parallelogramPerimeter;whiteSpace=wrap;html=1;fixedSize=1;" parent="1" vertex="1">
          <mxGeometry x="650" y="980" width="120" height="60" as="geometry" />
        </mxCell>
        <mxCell id="4glLAtaTAABjFDv6GbT7-65" value="queue.user-auth.creation" style="shape=parallelogram;perimeter=parallelogramPerimeter;whiteSpace=wrap;html=1;fixedSize=1;" parent="1" vertex="1">
          <mxGeometry x="640" y="1120" width="120" height="60" as="geometry" />
        </mxCell>
        <mxCell id="4glLAtaTAABjFDv6GbT7-66" value="" style="endArrow=classic;html=1;rounded=0;" parent="1" source="4glLAtaTAABjFDv6GbT7-57" target="4glLAtaTAABjFDv6GbT7-65" edge="1">
          <mxGeometry relative="1" as="geometry">
            <mxPoint x="280" y="1060" as="sourcePoint" />
            <mxPoint x="626" y="1106" as="targetPoint" />
          </mxGeometry>
        </mxCell>
        <mxCell id="4glLAtaTAABjFDv6GbT7-67" value="task.create.user-auth" style="edgeLabel;resizable=0;html=1;;align=center;verticalAlign=middle;" parent="4glLAtaTAABjFDv6GbT7-66" connectable="0" vertex="1">
          <mxGeometry relative="1" as="geometry" />
        </mxCell>
        <mxCell id="4glLAtaTAABjFDv6GbT7-68" value="" style="endArrow=classic;html=1;rounded=0;" parent="1" source="4glLAtaTAABjFDv6GbT7-58" target="4glLAtaTAABjFDv6GbT7-70" edge="1">
          <mxGeometry relative="1" as="geometry">
            <mxPoint x="390" y="1396" as="sourcePoint" />
            <mxPoint x="620" y="1290" as="targetPoint" />
          </mxGeometry>
        </mxCell>
        <mxCell id="4glLAtaTAABjFDv6GbT7-69" value="event.user-auth.creation.fail" style="edgeLabel;resizable=0;html=1;;align=center;verticalAlign=middle;" parent="4glLAtaTAABjFDv6GbT7-68" connectable="0" vertex="1">
          <mxGeometry relative="1" as="geometry" />
        </mxCell>
        <mxCell id="4glLAtaTAABjFDv6GbT7-70" value="queue.user.creation-compensation" style="shape=parallelogram;perimeter=parallelogramPerimeter;whiteSpace=wrap;html=1;fixedSize=1;" parent="1" vertex="1">
          <mxGeometry x="630" y="1360" width="120" height="60" as="geometry" />
        </mxCell>
        <mxCell id="4glLAtaTAABjFDv6GbT7-78" value="Orchestrator-Service" style="shape=umlLifeline;perimeter=lifelinePerimeter;whiteSpace=wrap;html=1;container=1;dropTarget=0;collapsible=0;recursiveResize=0;outlineConnect=0;portConstraint=eastwest;newEdgeStyle={&quot;curved&quot;:0,&quot;rounded&quot;:0};" parent="1" vertex="1">
          <mxGeometry x="40" y="1810" width="100" height="300" as="geometry" />
        </mxCell>
        <mxCell id="4glLAtaTAABjFDv6GbT7-151" value="" style="html=1;perimeter=orthogonalPerimeter;outlineConnect=0;targetShapes=umlLifeline;portConstraint=eastwest;newEdgeStyle={&quot;curved&quot;:0,&quot;rounded&quot;:0};points=[[0,0,0,0,0],[0,0.25,0,0,0],[0,0.5,0,0,0],[0,0.75,0,0,0],[0,1,0,0,0],[0.25,0,0,0,0],[0.25,1,0,0,0],[0.5,0,0,0,0],[0.5,1,0,0,0],[0.75,0,0,0,0],[0.75,1,0,0,0],[1,0,0,0,0],[1,0.25,0,0,0],[1,0.5,0,0,0],[1,0.75,0,0,0],[1,1,0,0,0]];" parent="4glLAtaTAABjFDv6GbT7-78" vertex="1">
          <mxGeometry x="45" y="90" width="10" height="100" as="geometry" />
        </mxCell>
        <mxCell id="4glLAtaTAABjFDv6GbT7-83" value="Client" style="shape=umlLifeline;perimeter=lifelinePerimeter;whiteSpace=wrap;html=1;container=1;dropTarget=0;collapsible=0;recursiveResize=0;outlineConnect=0;portConstraint=eastwest;newEdgeStyle={&quot;curved&quot;:0,&quot;rounded&quot;:0};" parent="1" vertex="1">
          <mxGeometry x="-220" y="1810" width="100" height="300" as="geometry" />
        </mxCell>
        <mxCell id="4glLAtaTAABjFDv6GbT7-84" value="" style="html=1;perimeter=orthogonalPerimeter;outlineConnect=0;targetShapes=umlLifeline;portConstraint=eastwest;newEdgeStyle={&quot;curved&quot;:0,&quot;rounded&quot;:0};" parent="4glLAtaTAABjFDv6GbT7-83" vertex="1">
          <mxGeometry x="45" y="90" width="10" height="20" as="geometry" />
        </mxCell>
        <mxCell id="4glLAtaTAABjFDv6GbT7-85" value="User-Service" style="ellipse;whiteSpace=wrap;html=1;" parent="1" vertex="1">
          <mxGeometry x="1110" y="890" width="120" height="80" as="geometry" />
        </mxCell>
        <mxCell id="4glLAtaTAABjFDv6GbT7-86" value="" style="endArrow=classic;html=1;rounded=0;" parent="1" source="4glLAtaTAABjFDv6GbT7-59" target="4glLAtaTAABjFDv6GbT7-85" edge="1">
          <mxGeometry width="50" height="50" relative="1" as="geometry">
            <mxPoint x="870" y="750" as="sourcePoint" />
            <mxPoint x="1061" y="809" as="targetPoint" />
          </mxGeometry>
        </mxCell>
        <mxCell id="4glLAtaTAABjFDv6GbT7-87" value="" style="endArrow=classic;html=1;rounded=0;" parent="1" source="4glLAtaTAABjFDv6GbT7-64" target="4glLAtaTAABjFDv6GbT7-85" edge="1">
          <mxGeometry width="50" height="50" relative="1" as="geometry">
            <mxPoint x="850" y="1090" as="sourcePoint" />
            <mxPoint x="1036" y="1152" as="targetPoint" />
          </mxGeometry>
        </mxCell>
        <mxCell id="4glLAtaTAABjFDv6GbT7-88" value="Auth-Service" style="ellipse;whiteSpace=wrap;html=1;" parent="1" vertex="1">
          <mxGeometry x="890" y="1110" width="120" height="80" as="geometry" />
        </mxCell>
        <mxCell id="4glLAtaTAABjFDv6GbT7-89" value="" style="endArrow=classic;html=1;rounded=0;" parent="1" source="4glLAtaTAABjFDv6GbT7-65" target="4glLAtaTAABjFDv6GbT7-88" edge="1">
          <mxGeometry width="50" height="50" relative="1" as="geometry">
            <mxPoint x="827" y="1080" as="sourcePoint" />
            <mxPoint x="1016" y="1030" as="targetPoint" />
          </mxGeometry>
        </mxCell>
        <mxCell id="4glLAtaTAABjFDv6GbT7-91" value="Orchestrator-Service" style="ellipse;whiteSpace=wrap;html=1;" parent="1" vertex="1">
          <mxGeometry x="293" y="1270" width="120" height="80" as="geometry" />
        </mxCell>
        <mxCell id="4glLAtaTAABjFDv6GbT7-92" value="" style="endArrow=classic;html=1;rounded=0;" parent="1" source="4glLAtaTAABjFDv6GbT7-70" target="4glLAtaTAABjFDv6GbT7-91" edge="1">
          <mxGeometry width="50" height="50" relative="1" as="geometry">
            <mxPoint x="760" y="1160" as="sourcePoint" />
            <mxPoint x="970" y="1160" as="targetPoint" />
          </mxGeometry>
        </mxCell>
        <mxCell id="4glLAtaTAABjFDv6GbT7-93" value="" style="endArrow=classic;html=1;rounded=0;" parent="1" source="4glLAtaTAABjFDv6GbT7-91" target="4glLAtaTAABjFDv6GbT7-57" edge="1">
          <mxGeometry width="50" height="50" relative="1" as="geometry">
            <mxPoint x="676" y="1461" as="sourcePoint" />
            <mxPoint x="413" y="1342" as="targetPoint" />
          </mxGeometry>
        </mxCell>
        <mxCell id="4glLAtaTAABjFDv6GbT7-100" value="" style="endArrow=classic;html=1;rounded=0;fillColor=#f8cecc;strokeColor=#b85450;" parent="1" source="4glLAtaTAABjFDv6GbT7-88" target="4glLAtaTAABjFDv6GbT7-58" edge="1">
          <mxGeometry relative="1" as="geometry">
            <mxPoint x="1080" y="1350" as="sourcePoint" />
            <mxPoint x="730" y="1350" as="targetPoint" />
          </mxGeometry>
        </mxCell>
        <mxCell id="4glLAtaTAABjFDv6GbT7-101" value="event.user-auth.creation.fail" style="edgeLabel;resizable=0;html=1;;align=center;verticalAlign=middle;" parent="4glLAtaTAABjFDv6GbT7-100" connectable="0" vertex="1">
          <mxGeometry relative="1" as="geometry" />
        </mxCell>
        <mxCell id="4glLAtaTAABjFDv6GbT7-109" value="" style="endArrow=classic;html=1;rounded=0;" parent="1" source="4glLAtaTAABjFDv6GbT7-57" target="4glLAtaTAABjFDv6GbT7-111" edge="1">
          <mxGeometry relative="1" as="geometry">
            <mxPoint x="-30" y="1496" as="sourcePoint" />
            <mxPoint x="70" y="1340" as="targetPoint" />
          </mxGeometry>
        </mxCell>
        <mxCell id="4glLAtaTAABjFDv6GbT7-110" value="task.create-in-transaction.user" style="edgeLabel;resizable=0;html=1;;align=center;verticalAlign=middle;" parent="4glLAtaTAABjFDv6GbT7-109" connectable="0" vertex="1">
          <mxGeometry relative="1" as="geometry" />
        </mxCell>
        <mxCell id="4glLAtaTAABjFDv6GbT7-111" value="queue.user.transactional-creation" style="shape=parallelogram;perimeter=parallelogramPerimeter;whiteSpace=wrap;html=1;fixedSize=1;" parent="1" vertex="1">
          <mxGeometry x="-60" y="1130" width="120" height="60" as="geometry" />
        </mxCell>
        <mxCell id="4glLAtaTAABjFDv6GbT7-112" value="" style="endArrow=classic;html=1;rounded=0;" parent="1" source="4glLAtaTAABjFDv6GbT7-111" target="4glLAtaTAABjFDv6GbT7-91" edge="1">
          <mxGeometry width="50" height="50" relative="1" as="geometry">
            <mxPoint x="352" y="1281" as="sourcePoint" />
            <mxPoint x="281" y="1020" as="targetPoint" />
          </mxGeometry>
        </mxCell>
        <mxCell id="4glLAtaTAABjFDv6GbT7-114" value="Client" style="ellipse;whiteSpace=wrap;html=1;" parent="1" vertex="1">
          <mxGeometry x="-320" y="930" width="120" height="80" as="geometry" />
        </mxCell>
        <mxCell id="4glLAtaTAABjFDv6GbT7-115" value="" style="endArrow=classic;html=1;rounded=0;fillColor=#dae8fc;strokeColor=#6c8ebf;" parent="1" source="4glLAtaTAABjFDv6GbT7-114" target="4glLAtaTAABjFDv6GbT7-57" edge="1">
          <mxGeometry relative="1" as="geometry">
            <mxPoint x="226" y="1012" as="sourcePoint" />
            <mxPoint x="51" y="1140" as="targetPoint" />
          </mxGeometry>
        </mxCell>
        <mxCell id="4glLAtaTAABjFDv6GbT7-116" value="task.create-in-transaction.user" style="edgeLabel;resizable=0;html=1;;align=center;verticalAlign=middle;" parent="4glLAtaTAABjFDv6GbT7-115" connectable="0" vertex="1">
          <mxGeometry relative="1" as="geometry" />
        </mxCell>
        <mxCell id="4glLAtaTAABjFDv6GbT7-122" value="Two-node-parallel-orchestrator-saga" style="text;strokeColor=none;fillColor=none;html=1;fontSize=24;fontStyle=1;verticalAlign=middle;align=center;" parent="1" vertex="1">
          <mxGeometry x="700" y="220" width="100" height="40" as="geometry" />
        </mxCell>
        <mxCell id="4glLAtaTAABjFDv6GbT7-123" value="&lt;h1 style=&quot;margin-top: 0px;&quot;&gt;Naming covention&lt;/h1&gt;&lt;p&gt;&lt;/p&gt;&lt;ul&gt;&lt;li&gt;partition-key - task.[action].[entity-name] / event.[entity-name].[action].[result]&lt;/li&gt;&lt;li&gt;exchange - [task / event].[type].exchange&lt;/li&gt;&lt;li&gt;queue - queue.[entity-name].[action]&lt;/li&gt;&lt;/ul&gt;&lt;div&gt;Tasks represent actions, which change the state of services.&lt;/div&gt;&lt;div&gt;Events represent results of actions to which other services can react.&lt;/div&gt;&lt;div&gt;Action name in partition keys represent what the message is used for.&lt;/div&gt;&lt;div&gt;Action name in queues represent what consumer should do with the message.&lt;/div&gt;&lt;div&gt;Entity names are used to show which services should consume messages.&lt;/div&gt;&lt;p&gt;&lt;/p&gt;" style="text;html=1;whiteSpace=wrap;overflow=hidden;rounded=0;" parent="1" vertex="1">
          <mxGeometry y="290" width="460" height="190" as="geometry" />
        </mxCell>
        <mxCell id="4glLAtaTAABjFDv6GbT7-125" value="&lt;h1 style=&quot;margin-top: 0px;&quot;&gt;Note&lt;/h1&gt;&lt;p&gt;This event.direct.exchange is a very simple example of event notification pattern, where events are created in decoupled way and any consumer can inspect them and react.&lt;/p&gt;" style="text;html=1;whiteSpace=wrap;overflow=hidden;rounded=0;" parent="1" vertex="1">
          <mxGeometry x="1100" y="1530" width="180" height="140" as="geometry" />
        </mxCell>
        <mxCell id="4glLAtaTAABjFDv6GbT7-126" value="Happy Path" style="text;strokeColor=none;fillColor=none;html=1;fontSize=24;fontStyle=1;verticalAlign=middle;align=center;" parent="1" vertex="1">
          <mxGeometry x="180" y="1734" width="100" height="40" as="geometry" />
        </mxCell>
        <mxCell id="4glLAtaTAABjFDv6GbT7-127" value="task.create-in-transaction.user" style="html=1;verticalAlign=bottom;endArrow=block;curved=0;rounded=0;entryX=0;entryY=0;entryDx=0;entryDy=0;entryPerimeter=0;exitX=1;exitY=0;exitDx=0;exitDy=0;" parent="1" source="4glLAtaTAABjFDv6GbT7-84" edge="1">
          <mxGeometry width="80" relative="1" as="geometry">
            <mxPoint x="-250" y="1900" as="sourcePoint" />
            <mxPoint x="85" y="1900" as="targetPoint" />
          </mxGeometry>
        </mxCell>
        <mxCell id="4glLAtaTAABjFDv6GbT7-133" value="task.create.user" style="html=1;verticalAlign=bottom;endArrow=block;curved=0;rounded=0;entryX=0;entryY=0;entryDx=0;entryDy=0;entryPerimeter=0;" parent="1" target="4glLAtaTAABjFDv6GbT7-135" edge="1">
          <mxGeometry width="80" relative="1" as="geometry">
            <mxPoint x="95" y="1920" as="sourcePoint" />
            <mxPoint x="280" y="1920" as="targetPoint" />
          </mxGeometry>
        </mxCell>
        <mxCell id="4glLAtaTAABjFDv6GbT7-134" value="User-Service" style="shape=umlLifeline;perimeter=lifelinePerimeter;whiteSpace=wrap;html=1;container=1;dropTarget=0;collapsible=0;recursiveResize=0;outlineConnect=0;portConstraint=eastwest;newEdgeStyle={&quot;curved&quot;:0,&quot;rounded&quot;:0};" parent="1" vertex="1">
          <mxGeometry x="303" y="1810" width="100" height="300" as="geometry" />
        </mxCell>
        <mxCell id="4glLAtaTAABjFDv6GbT7-135" value="" style="html=1;perimeter=orthogonalPerimeter;outlineConnect=0;targetShapes=umlLifeline;portConstraint=eastwest;newEdgeStyle={&quot;curved&quot;:0,&quot;rounded&quot;:0};points=[[0,0,0,0,0],[0,0.25,0,0,0],[0,0.5,0,0,0],[0,0.75,0,0,0],[0,1,0,0,0],[0.25,0,0,0,0],[0.25,1,0,0,0],[0.5,0,0,0,0],[0.5,1,0,0,0],[0.75,0,0,0,0],[0.75,1,0,0,0],[1,0,0,0,0],[1,0.25,0,0,0],[1,0.5,0,0,0],[1,0.75,0,0,0],[1,1,0,0,0]];" parent="4glLAtaTAABjFDv6GbT7-134" vertex="1">
          <mxGeometry x="45" y="110" width="10" height="100" as="geometry" />
        </mxCell>
        <mxCell id="4glLAtaTAABjFDv6GbT7-142" value="publish.broker.ack" style="html=1;verticalAlign=bottom;endArrow=open;dashed=1;endSize=8;curved=0;rounded=0;entryX=1;entryY=1;entryDx=0;entryDy=0;" parent="1" target="4glLAtaTAABjFDv6GbT7-84" edge="1">
          <mxGeometry relative="1" as="geometry">
            <mxPoint x="-60" y="1920" as="sourcePoint" />
            <mxPoint x="-280" y="1920" as="targetPoint" />
          </mxGeometry>
        </mxCell>
        <mxCell id="4glLAtaTAABjFDv6GbT7-146" value="consume.broker.ack" style="html=1;verticalAlign=bottom;endArrow=open;dashed=1;endSize=8;curved=0;rounded=0;" parent="1" source="4glLAtaTAABjFDv6GbT7-135" edge="1">
          <mxGeometry relative="1" as="geometry">
            <mxPoint x="385" y="2020" as="sourcePoint" />
            <mxPoint x="240" y="2020" as="targetPoint" />
          </mxGeometry>
        </mxCell>
        <mxCell id="4glLAtaTAABjFDv6GbT7-147" value="Local Transaction&lt;div&gt;Succeeds&lt;/div&gt;" style="shape=note;size=20;whiteSpace=wrap;html=1;" parent="1" vertex="1">
          <mxGeometry x="430" y="1970" width="80" height="50" as="geometry" />
        </mxCell>
        <mxCell id="4glLAtaTAABjFDv6GbT7-149" value="" style="endArrow=none;dashed=1;html=1;dashPattern=1 3;strokeWidth=2;rounded=0;" parent="1" source="4glLAtaTAABjFDv6GbT7-135" target="4glLAtaTAABjFDv6GbT7-147" edge="1">
          <mxGeometry width="50" height="50" relative="1" as="geometry">
            <mxPoint x="510" y="2100" as="sourcePoint" />
            <mxPoint x="560" y="2050" as="targetPoint" />
          </mxGeometry>
        </mxCell>
        <mxCell id="4glLAtaTAABjFDv6GbT7-153" value="Auth-Service" style="shape=umlLifeline;perimeter=lifelinePerimeter;whiteSpace=wrap;html=1;container=1;dropTarget=0;collapsible=0;recursiveResize=0;outlineConnect=0;portConstraint=eastwest;newEdgeStyle={&quot;curved&quot;:0,&quot;rounded&quot;:0};" parent="1" vertex="1">
          <mxGeometry x="560" y="1810" width="100" height="410" as="geometry" />
        </mxCell>
        <mxCell id="4glLAtaTAABjFDv6GbT7-154" value="" style="html=1;perimeter=orthogonalPerimeter;outlineConnect=0;targetShapes=umlLifeline;portConstraint=eastwest;newEdgeStyle={&quot;curved&quot;:0,&quot;rounded&quot;:0};points=[[0,0,0,0,0],[0,0.25,0,0,0],[0,0.5,0,0,0],[0,0.75,0,0,0],[0,1,0,0,0],[0.25,0,0,0,0],[0.25,1,0,0,0],[0.5,0,0,0,0],[0.5,1,0,0,0],[0.75,0,0,0,0],[0.75,1,0,0,0],[1,0,0,0,0],[1,0.25,0,0,0],[1,0.5,0,0,0],[1,0.75,0,0,0],[1,1,0,0,0]];" parent="4glLAtaTAABjFDv6GbT7-153" vertex="1">
          <mxGeometry x="45" y="150" width="10" height="100" as="geometry" />
        </mxCell>
        <mxCell id="4glLAtaTAABjFDv6GbT7-155" value="task.create.user-auth" style="html=1;verticalAlign=bottom;endArrow=block;curved=0;rounded=0;entryX=0;entryY=0;entryDx=0;entryDy=0;entryPerimeter=0;" parent="1" source="4glLAtaTAABjFDv6GbT7-151" target="4glLAtaTAABjFDv6GbT7-154" edge="1">
          <mxGeometry width="80" relative="1" as="geometry">
            <mxPoint x="190" y="2040" as="sourcePoint" />
            <mxPoint x="600" y="2040" as="targetPoint" />
          </mxGeometry>
        </mxCell>
        <mxCell id="4glLAtaTAABjFDv6GbT7-156" value="consume.broker.ack" style="html=1;verticalAlign=bottom;endArrow=open;dashed=1;endSize=8;curved=0;rounded=0;exitX=0;exitY=1;exitDx=0;exitDy=0;exitPerimeter=0;" parent="1" source="4glLAtaTAABjFDv6GbT7-154" edge="1">
          <mxGeometry relative="1" as="geometry">
            <mxPoint x="655" y="2140" as="sourcePoint" />
            <mxPoint x="490" y="2060" as="targetPoint" />
          </mxGeometry>
        </mxCell>
        <mxCell id="4glLAtaTAABjFDv6GbT7-158" value="" style="endArrow=none;dashed=1;html=1;dashPattern=1 3;strokeWidth=2;rounded=0;" parent="1" source="4glLAtaTAABjFDv6GbT7-154" target="4glLAtaTAABjFDv6GbT7-265" edge="1">
          <mxGeometry width="50" height="50" relative="1" as="geometry">
            <mxPoint x="715" y="2080" as="sourcePoint" />
            <mxPoint x="670" y="2090" as="targetPoint" />
          </mxGeometry>
        </mxCell>
        <mxCell id="4glLAtaTAABjFDv6GbT7-159" value="publish.broker.ack" style="html=1;verticalAlign=bottom;endArrow=open;dashed=1;endSize=8;curved=0;rounded=0;" parent="1" edge="1">
          <mxGeometry x="-0.0011" relative="1" as="geometry">
            <mxPoint x="200" y="1985" as="sourcePoint" />
            <mxPoint x="95" y="1985" as="targetPoint" />
            <Array as="points">
              <mxPoint x="160" y="1985" />
            </Array>
            <mxPoint as="offset" />
          </mxGeometry>
        </mxCell>
        <mxCell id="4glLAtaTAABjFDv6GbT7-160" value="publish.broker.ack" style="html=1;verticalAlign=bottom;endArrow=open;dashed=1;endSize=8;curved=0;rounded=0;" parent="1" edge="1">
          <mxGeometry relative="1" as="geometry">
            <mxPoint x="200" y="1940" as="sourcePoint" />
            <mxPoint x="95" y="1940" as="targetPoint" />
          </mxGeometry>
        </mxCell>
        <mxCell id="4glLAtaTAABjFDv6GbT7-161" value="consume.broker.ack" style="html=1;verticalAlign=bottom;endArrow=open;dashed=1;endSize=8;curved=0;rounded=0;exitX=0;exitY=1;exitDx=0;exitDy=0;exitPerimeter=0;" parent="1" edge="1">
          <mxGeometry relative="1" as="geometry">
            <mxPoint x="85" y="2000" as="sourcePoint" />
            <mxPoint x="-20" y="2000" as="targetPoint" />
          </mxGeometry>
        </mxCell>
        <mxCell id="4glLAtaTAABjFDv6GbT7-265" value="Local Transaction&lt;div&gt;Succeeds&lt;/div&gt;" style="shape=note;size=20;whiteSpace=wrap;html=1;" parent="1" vertex="1">
          <mxGeometry x="690" y="1985" width="80" height="50" as="geometry" />
        </mxCell>
        <mxCell id="4glLAtaTAABjFDv6GbT7-285" value="&lt;span style=&quot;font-size: 11px; text-wrap: nowrap; background-color: rgb(255, 255, 255);&quot;&gt;task.create.user-auth&lt;/span&gt;" style="swimlane;fontStyle=0;childLayout=stackLayout;horizontal=1;startSize=30;fillColor=none;horizontalStack=0;resizeParent=1;resizeParentMax=0;resizeLast=0;collapsible=1;marginBottom=0;whiteSpace=wrap;html=1;" parent="1" vertex="1">
          <mxGeometry x="580" y="600" width="140" height="134" as="geometry" />
        </mxCell>
        <mxCell id="4glLAtaTAABjFDv6GbT7-286" value="+ id: ObjectId" style="text;strokeColor=none;fillColor=none;align=left;verticalAlign=top;spacingLeft=4;spacingRight=4;overflow=hidden;rotatable=0;points=[[0,0.5],[1,0.5]];portConstraint=eastwest;whiteSpace=wrap;html=1;" parent="4glLAtaTAABjFDv6GbT7-285" vertex="1">
          <mxGeometry y="30" width="140" height="26" as="geometry" />
        </mxCell>
        <mxCell id="4glLAtaTAABjFDv6GbT7-289" value="+ email: String" style="text;strokeColor=none;fillColor=none;align=left;verticalAlign=top;spacingLeft=4;spacingRight=4;overflow=hidden;rotatable=0;points=[[0,0.5],[1,0.5]];portConstraint=eastwest;whiteSpace=wrap;html=1;" parent="4glLAtaTAABjFDv6GbT7-285" vertex="1">
          <mxGeometry y="56" width="140" height="26" as="geometry" />
        </mxCell>
        <mxCell id="4glLAtaTAABjFDv6GbT7-290" value="+ username: String" style="text;strokeColor=none;fillColor=none;align=left;verticalAlign=top;spacingLeft=4;spacingRight=4;overflow=hidden;rotatable=0;points=[[0,0.5],[1,0.5]];portConstraint=eastwest;whiteSpace=wrap;html=1;" parent="4glLAtaTAABjFDv6GbT7-285" vertex="1">
          <mxGeometry y="82" width="140" height="26" as="geometry" />
        </mxCell>
        <mxCell id="4glLAtaTAABjFDv6GbT7-291" value="+ password: String" style="text;strokeColor=none;fillColor=none;align=left;verticalAlign=top;spacingLeft=4;spacingRight=4;overflow=hidden;rotatable=0;points=[[0,0.5],[1,0.5]];portConstraint=eastwest;whiteSpace=wrap;html=1;" parent="4glLAtaTAABjFDv6GbT7-285" vertex="1">
          <mxGeometry y="108" width="140" height="26" as="geometry" />
        </mxCell>
        <mxCell id="4glLAtaTAABjFDv6GbT7-292" value="&lt;span style=&quot;font-size: 11px; text-wrap: nowrap; background-color: rgb(255, 255, 255);&quot;&gt;task.delete.user&lt;/span&gt;" style="swimlane;fontStyle=0;childLayout=stackLayout;horizontal=1;startSize=30;fillColor=none;horizontalStack=0;resizeParent=1;resizeParentMax=0;resizeLast=0;collapsible=1;marginBottom=0;whiteSpace=wrap;html=1;" parent="1" vertex="1">
          <mxGeometry x="1070" y="600" width="140" height="56" as="geometry" />
        </mxCell>
        <mxCell id="4glLAtaTAABjFDv6GbT7-293" value="+ id: ObjectId" style="text;strokeColor=none;fillColor=none;align=left;verticalAlign=top;spacingLeft=4;spacingRight=4;overflow=hidden;rotatable=0;points=[[0,0.5],[1,0.5]];portConstraint=eastwest;whiteSpace=wrap;html=1;" parent="4glLAtaTAABjFDv6GbT7-292" vertex="1">
          <mxGeometry y="30" width="140" height="26" as="geometry" />
        </mxCell>
        <mxCell id="4glLAtaTAABjFDv6GbT7-297" value="&lt;span style=&quot;font-size: 11px; text-wrap: nowrap; background-color: rgb(255, 255, 255);&quot;&gt;task.create.user&lt;/span&gt;" style="swimlane;fontStyle=0;childLayout=stackLayout;horizontal=1;startSize=30;fillColor=none;horizontalStack=0;resizeParent=1;resizeParentMax=0;resizeLast=0;collapsible=1;marginBottom=0;whiteSpace=wrap;html=1;" parent="1" vertex="1">
          <mxGeometry x="340" y="600" width="140" height="108" as="geometry" />
        </mxCell>
        <mxCell id="4glLAtaTAABjFDv6GbT7-298" value="+ id: ObjectId" style="text;strokeColor=none;fillColor=none;align=left;verticalAlign=top;spacingLeft=4;spacingRight=4;overflow=hidden;rotatable=0;points=[[0,0.5],[1,0.5]];portConstraint=eastwest;whiteSpace=wrap;html=1;" parent="4glLAtaTAABjFDv6GbT7-297" vertex="1">
          <mxGeometry y="30" width="140" height="26" as="geometry" />
        </mxCell>
        <mxCell id="4glLAtaTAABjFDv6GbT7-299" value="+ firstname: String" style="text;strokeColor=none;fillColor=none;align=left;verticalAlign=top;spacingLeft=4;spacingRight=4;overflow=hidden;rotatable=0;points=[[0,0.5],[1,0.5]];portConstraint=eastwest;whiteSpace=wrap;html=1;" parent="4glLAtaTAABjFDv6GbT7-297" vertex="1">
          <mxGeometry y="56" width="140" height="26" as="geometry" />
        </mxCell>
        <mxCell id="4glLAtaTAABjFDv6GbT7-300" value="+ lastname: String" style="text;strokeColor=none;fillColor=none;align=left;verticalAlign=top;spacingLeft=4;spacingRight=4;overflow=hidden;rotatable=0;points=[[0,0.5],[1,0.5]];portConstraint=eastwest;whiteSpace=wrap;html=1;" parent="4glLAtaTAABjFDv6GbT7-297" vertex="1">
          <mxGeometry y="82" width="140" height="26" as="geometry" />
        </mxCell>
        <mxCell id="4glLAtaTAABjFDv6GbT7-309" value="&lt;span style=&quot;font-size: 11px; text-wrap: nowrap; background-color: rgb(255, 255, 255);&quot;&gt;event.user-auth.creation.fail&lt;/span&gt;" style="swimlane;fontStyle=0;childLayout=stackLayout;horizontal=1;startSize=30;fillColor=none;horizontalStack=0;resizeParent=1;resizeParentMax=0;resizeLast=0;collapsible=1;marginBottom=0;whiteSpace=wrap;html=1;" parent="1" vertex="1">
          <mxGeometry x="820" y="600" width="140" height="56" as="geometry" />
        </mxCell>
        <mxCell id="4glLAtaTAABjFDv6GbT7-310" value="+ id: ObjectId" style="text;strokeColor=none;fillColor=none;align=left;verticalAlign=top;spacingLeft=4;spacingRight=4;overflow=hidden;rotatable=0;points=[[0,0.5],[1,0.5]];portConstraint=eastwest;whiteSpace=wrap;html=1;" parent="4glLAtaTAABjFDv6GbT7-309" vertex="1">
          <mxGeometry y="30" width="140" height="26" as="geometry" />
        </mxCell>
        <mxCell id="2UcZvFc60_YvVKQtkJNw-1" value="&lt;h1 style=&quot;margin-top: 0px;&quot;&gt;Note&lt;/h1&gt;&lt;p&gt;This parallel approach, requires that message from client can be replayed in case orchestrator dies between task publishes. This means that client must place its message on queue.&lt;/p&gt;" style="text;html=1;whiteSpace=wrap;overflow=hidden;rounded=0;" parent="1" vertex="1">
          <mxGeometry x="-100" y="1600" width="180" height="140" as="geometry" />
        </mxCell>
        <mxCell id="2UcZvFc60_YvVKQtkJNw-2" value="Orchestrator-Service" style="shape=umlLifeline;perimeter=lifelinePerimeter;whiteSpace=wrap;html=1;container=1;dropTarget=0;collapsible=0;recursiveResize=0;outlineConnect=0;portConstraint=eastwest;newEdgeStyle={&quot;curved&quot;:0,&quot;rounded&quot;:0};" parent="1" vertex="1">
          <mxGeometry x="1170" y="1810" width="100" height="450" as="geometry" />
        </mxCell>
        <mxCell id="2UcZvFc60_YvVKQtkJNw-3" value="" style="html=1;perimeter=orthogonalPerimeter;outlineConnect=0;targetShapes=umlLifeline;portConstraint=eastwest;newEdgeStyle={&quot;curved&quot;:0,&quot;rounded&quot;:0};points=[[0,0,0,0,0],[0,0.25,0,0,0],[0,0.5,0,0,0],[0,0.75,0,0,0],[0,1,0,0,0],[0.25,0,0,0,0],[0.25,1,0,0,0],[0.5,0,0,0,0],[0.5,1,0,0,0],[0.75,0,0,0,0],[0.75,1,0,0,0],[1,0,0,0,0],[1,0.25,0,0,0],[1,0.5,0,0,0],[1,0.75,0,0,0],[1,1,0,0,0]];" parent="2UcZvFc60_YvVKQtkJNw-2" vertex="1">
          <mxGeometry x="45" y="90" width="10" height="100" as="geometry" />
        </mxCell>
        <mxCell id="2UcZvFc60_YvVKQtkJNw-26" value="" style="html=1;perimeter=orthogonalPerimeter;outlineConnect=0;targetShapes=umlLifeline;portConstraint=eastwest;newEdgeStyle={&quot;curved&quot;:0,&quot;rounded&quot;:0};points=[[0,0,0,0,0],[0,0.25,0,0,0],[0,0.5,0,0,0],[0,0.75,0,0,0],[0,1,0,0,0],[0.25,0,0,0,0],[0.25,1,0,0,0],[0.5,0,0,0,0],[0.5,1,0,0,0],[0.75,0,0,0,0],[0.75,1,0,0,0],[1,0,0,0,0],[1,0.25,0,0,0],[1,0.5,0,0,0],[1,0.75,0,0,0],[1,1,0,0,0]];" parent="2UcZvFc60_YvVKQtkJNw-2" vertex="1">
          <mxGeometry x="45" y="290" width="10" height="60" as="geometry" />
        </mxCell>
        <mxCell id="2UcZvFc60_YvVKQtkJNw-4" value="Client" style="shape=umlLifeline;perimeter=lifelinePerimeter;whiteSpace=wrap;html=1;container=1;dropTarget=0;collapsible=0;recursiveResize=0;outlineConnect=0;portConstraint=eastwest;newEdgeStyle={&quot;curved&quot;:0,&quot;rounded&quot;:0};" parent="1" vertex="1">
          <mxGeometry x="910" y="1810" width="100" height="300" as="geometry" />
        </mxCell>
        <mxCell id="2UcZvFc60_YvVKQtkJNw-5" value="" style="html=1;perimeter=orthogonalPerimeter;outlineConnect=0;targetShapes=umlLifeline;portConstraint=eastwest;newEdgeStyle={&quot;curved&quot;:0,&quot;rounded&quot;:0};" parent="2UcZvFc60_YvVKQtkJNw-4" vertex="1">
          <mxGeometry x="45" y="90" width="10" height="20" as="geometry" />
        </mxCell>
        <mxCell id="2UcZvFc60_YvVKQtkJNw-6" value="Unhappy Path" style="text;strokeColor=none;fillColor=none;html=1;fontSize=24;fontStyle=1;verticalAlign=middle;align=center;" parent="1" vertex="1">
          <mxGeometry x="1310" y="1734" width="100" height="40" as="geometry" />
        </mxCell>
        <mxCell id="2UcZvFc60_YvVKQtkJNw-7" value="task.create-in-transaction.user" style="html=1;verticalAlign=bottom;endArrow=block;curved=0;rounded=0;entryX=0;entryY=0;entryDx=0;entryDy=0;entryPerimeter=0;exitX=1;exitY=0;exitDx=0;exitDy=0;" parent="1" source="2UcZvFc60_YvVKQtkJNw-5" edge="1">
          <mxGeometry width="80" relative="1" as="geometry">
            <mxPoint x="880" y="1900" as="sourcePoint" />
            <mxPoint x="1215" y="1900" as="targetPoint" />
          </mxGeometry>
        </mxCell>
        <mxCell id="2UcZvFc60_YvVKQtkJNw-8" value="task.create.user" style="html=1;verticalAlign=bottom;endArrow=block;curved=0;rounded=0;entryX=0;entryY=0;entryDx=0;entryDy=0;entryPerimeter=0;" parent="1" target="2UcZvFc60_YvVKQtkJNw-10" edge="1">
          <mxGeometry width="80" relative="1" as="geometry">
            <mxPoint x="1225" y="1920" as="sourcePoint" />
            <mxPoint x="1410" y="1920" as="targetPoint" />
          </mxGeometry>
        </mxCell>
        <mxCell id="2UcZvFc60_YvVKQtkJNw-9" value="User-Service" style="shape=umlLifeline;perimeter=lifelinePerimeter;whiteSpace=wrap;html=1;container=1;dropTarget=0;collapsible=0;recursiveResize=0;outlineConnect=0;portConstraint=eastwest;newEdgeStyle={&quot;curved&quot;:0,&quot;rounded&quot;:0};" parent="1" vertex="1">
          <mxGeometry x="1433" y="1810" width="100" height="450" as="geometry" />
        </mxCell>
        <mxCell id="2UcZvFc60_YvVKQtkJNw-10" value="" style="html=1;perimeter=orthogonalPerimeter;outlineConnect=0;targetShapes=umlLifeline;portConstraint=eastwest;newEdgeStyle={&quot;curved&quot;:0,&quot;rounded&quot;:0};points=[[0,0,0,0,0],[0,0.25,0,0,0],[0,0.5,0,0,0],[0,0.75,0,0,0],[0,1,0,0,0],[0.25,0,0,0,0],[0.25,1,0,0,0],[0.5,0,0,0,0],[0.5,1,0,0,0],[0.75,0,0,0,0],[0.75,1,0,0,0],[1,0,0,0,0],[1,0.25,0,0,0],[1,0.5,0,0,0],[1,0.75,0,0,0],[1,1,0,0,0]];" parent="2UcZvFc60_YvVKQtkJNw-9" vertex="1">
          <mxGeometry x="45" y="110" width="10" height="100" as="geometry" />
        </mxCell>
        <mxCell id="2UcZvFc60_YvVKQtkJNw-30" value="" style="html=1;perimeter=orthogonalPerimeter;outlineConnect=0;targetShapes=umlLifeline;portConstraint=eastwest;newEdgeStyle={&quot;curved&quot;:0,&quot;rounded&quot;:0};points=[[0,0,0,0,0],[0,0.25,0,0,0],[0,0.5,0,0,0],[0,0.75,0,0,0],[0,1,0,0,0],[0.25,0,0,0,0],[0.25,1,0,0,0],[0.5,0,0,0,0],[0.5,1,0,0,0],[0.75,0,0,0,0],[0.75,1,0,0,0],[1,0,0,0,0],[1,0.25,0,0,0],[1,0.5,0,0,0],[1,0.75,0,0,0],[1,1,0,0,0]];" parent="2UcZvFc60_YvVKQtkJNw-9" vertex="1">
          <mxGeometry x="45" y="310" width="10" height="100" as="geometry" />
        </mxCell>
        <mxCell id="2UcZvFc60_YvVKQtkJNw-11" value="publish.broker.ack" style="html=1;verticalAlign=bottom;endArrow=open;dashed=1;endSize=8;curved=0;rounded=0;entryX=1;entryY=1;entryDx=0;entryDy=0;" parent="1" target="2UcZvFc60_YvVKQtkJNw-5" edge="1">
          <mxGeometry relative="1" as="geometry">
            <mxPoint x="1070" y="1920" as="sourcePoint" />
            <mxPoint x="850" y="1920" as="targetPoint" />
          </mxGeometry>
        </mxCell>
        <mxCell id="2UcZvFc60_YvVKQtkJNw-12" value="consume.broker.ack" style="html=1;verticalAlign=bottom;endArrow=open;dashed=1;endSize=8;curved=0;rounded=0;" parent="1" source="2UcZvFc60_YvVKQtkJNw-10" edge="1">
          <mxGeometry relative="1" as="geometry">
            <mxPoint x="1515" y="2020" as="sourcePoint" />
            <mxPoint x="1370" y="2020" as="targetPoint" />
          </mxGeometry>
        </mxCell>
        <mxCell id="2UcZvFc60_YvVKQtkJNw-13" value="Local Transaction&lt;div&gt;Succeeds&lt;/div&gt;" style="shape=note;size=20;whiteSpace=wrap;html=1;" parent="1" vertex="1">
          <mxGeometry x="1560" y="1970" width="80" height="50" as="geometry" />
        </mxCell>
        <mxCell id="2UcZvFc60_YvVKQtkJNw-14" value="" style="endArrow=none;dashed=1;html=1;dashPattern=1 3;strokeWidth=2;rounded=0;" parent="1" source="2UcZvFc60_YvVKQtkJNw-10" target="2UcZvFc60_YvVKQtkJNw-13" edge="1">
          <mxGeometry width="50" height="50" relative="1" as="geometry">
            <mxPoint x="1640" y="2100" as="sourcePoint" />
            <mxPoint x="1690" y="2050" as="targetPoint" />
          </mxGeometry>
        </mxCell>
        <mxCell id="2UcZvFc60_YvVKQtkJNw-15" value="Auth-Service" style="shape=umlLifeline;perimeter=lifelinePerimeter;whiteSpace=wrap;html=1;container=1;dropTarget=0;collapsible=0;recursiveResize=0;outlineConnect=0;portConstraint=eastwest;newEdgeStyle={&quot;curved&quot;:0,&quot;rounded&quot;:0};" parent="1" vertex="1">
          <mxGeometry x="1690" y="1810" width="100" height="410" as="geometry" />
        </mxCell>
        <mxCell id="2UcZvFc60_YvVKQtkJNw-16" value="" style="html=1;perimeter=orthogonalPerimeter;outlineConnect=0;targetShapes=umlLifeline;portConstraint=eastwest;newEdgeStyle={&quot;curved&quot;:0,&quot;rounded&quot;:0};points=[[0,0,0,0,0],[0,0.25,0,0,0],[0,0.5,0,0,0],[0,0.75,0,0,0],[0,1,0,0,0],[0.25,0,0,0,0],[0.25,1,0,0,0],[0.5,0,0,0,0],[0.5,1,0,0,0],[0.75,0,0,0,0],[0.75,1,0,0,0],[1,0,0,0,0],[1,0.25,0,0,0],[1,0.5,0,0,0],[1,0.75,0,0,0],[1,1,0,0,0]];" parent="2UcZvFc60_YvVKQtkJNw-15" vertex="1">
          <mxGeometry x="45" y="150" width="10" height="180" as="geometry" />
        </mxCell>
        <mxCell id="2UcZvFc60_YvVKQtkJNw-17" value="task.create.user-auth" style="html=1;verticalAlign=bottom;endArrow=block;curved=0;rounded=0;entryX=0;entryY=0;entryDx=0;entryDy=0;entryPerimeter=0;" parent="1" source="2UcZvFc60_YvVKQtkJNw-3" target="2UcZvFc60_YvVKQtkJNw-16" edge="1">
          <mxGeometry width="80" relative="1" as="geometry">
            <mxPoint x="1320" y="2040" as="sourcePoint" />
            <mxPoint x="1730" y="2040" as="targetPoint" />
          </mxGeometry>
        </mxCell>
        <mxCell id="2UcZvFc60_YvVKQtkJNw-18" value="consume.broker.ack" style="html=1;verticalAlign=bottom;endArrow=open;dashed=1;endSize=8;curved=0;rounded=0;exitX=0;exitY=1;exitDx=0;exitDy=0;exitPerimeter=0;" parent="1" source="2UcZvFc60_YvVKQtkJNw-16" edge="1">
          <mxGeometry relative="1" as="geometry">
            <mxPoint x="1785" y="2140" as="sourcePoint" />
            <mxPoint x="1620" y="2140" as="targetPoint" />
          </mxGeometry>
        </mxCell>
        <mxCell id="2UcZvFc60_YvVKQtkJNw-19" value="" style="endArrow=none;dashed=1;html=1;dashPattern=1 3;strokeWidth=2;rounded=0;" parent="1" source="2UcZvFc60_YvVKQtkJNw-16" target="2UcZvFc60_YvVKQtkJNw-23" edge="1">
          <mxGeometry width="50" height="50" relative="1" as="geometry">
            <mxPoint x="1845" y="2080" as="sourcePoint" />
            <mxPoint x="1800" y="2090" as="targetPoint" />
          </mxGeometry>
        </mxCell>
        <mxCell id="2UcZvFc60_YvVKQtkJNw-20" value="publish.broker.ack" style="html=1;verticalAlign=bottom;endArrow=open;dashed=1;endSize=8;curved=0;rounded=0;" parent="1" edge="1">
          <mxGeometry x="-0.0011" relative="1" as="geometry">
            <mxPoint x="1330" y="1985" as="sourcePoint" />
            <mxPoint x="1225" y="1985" as="targetPoint" />
            <Array as="points">
              <mxPoint x="1290" y="1985" />
            </Array>
            <mxPoint as="offset" />
          </mxGeometry>
        </mxCell>
        <mxCell id="2UcZvFc60_YvVKQtkJNw-21" value="publish.broker.ack" style="html=1;verticalAlign=bottom;endArrow=open;dashed=1;endSize=8;curved=0;rounded=0;" parent="1" edge="1">
          <mxGeometry relative="1" as="geometry">
            <mxPoint x="1330" y="1940" as="sourcePoint" />
            <mxPoint x="1225" y="1940" as="targetPoint" />
          </mxGeometry>
        </mxCell>
        <mxCell id="2UcZvFc60_YvVKQtkJNw-22" value="consume.broker.ack" style="html=1;verticalAlign=bottom;endArrow=open;dashed=1;endSize=8;curved=0;rounded=0;exitX=0;exitY=1;exitDx=0;exitDy=0;exitPerimeter=0;" parent="1" edge="1">
          <mxGeometry relative="1" as="geometry">
            <mxPoint x="1215" y="2000" as="sourcePoint" />
            <mxPoint x="1110" y="2000" as="targetPoint" />
          </mxGeometry>
        </mxCell>
        <mxCell id="2UcZvFc60_YvVKQtkJNw-23" value="Local Transaction&lt;div&gt;Fails&lt;/div&gt;" style="shape=note;size=20;whiteSpace=wrap;html=1;" parent="1" vertex="1">
          <mxGeometry x="1820" y="1985" width="80" height="50" as="geometry" />
        </mxCell>
        <mxCell id="2UcZvFc60_YvVKQtkJNw-24" value="" style="endArrow=classic;html=1;rounded=0;entryX=1;entryY=0;entryDx=0;entryDy=0;entryPerimeter=0;" parent="1" source="2UcZvFc60_YvVKQtkJNw-16" target="2UcZvFc60_YvVKQtkJNw-26" edge="1">
          <mxGeometry relative="1" as="geometry">
            <mxPoint x="1730" y="2100" as="sourcePoint" />
            <mxPoint x="1270" y="2100" as="targetPoint" />
          </mxGeometry>
        </mxCell>
        <mxCell id="2UcZvFc60_YvVKQtkJNw-25" value="even.user-auth.creation.fail" style="edgeLabel;resizable=0;html=1;;align=center;verticalAlign=middle;" parent="2UcZvFc60_YvVKQtkJNw-24" connectable="0" vertex="1">
          <mxGeometry relative="1" as="geometry" />
        </mxCell>
        <mxCell id="2UcZvFc60_YvVKQtkJNw-27" value="publish.broker.ack" style="html=1;verticalAlign=bottom;endArrow=open;dashed=1;endSize=8;curved=0;rounded=0;" parent="1" target="2UcZvFc60_YvVKQtkJNw-16" edge="1">
          <mxGeometry x="-0.0011" relative="1" as="geometry">
            <mxPoint x="1850" y="2120" as="sourcePoint" />
            <mxPoint x="1750" y="2120" as="targetPoint" />
            <Array as="points">
              <mxPoint x="1815" y="2120" />
            </Array>
            <mxPoint as="offset" />
          </mxGeometry>
        </mxCell>
        <mxCell id="2UcZvFc60_YvVKQtkJNw-28" value="" style="endArrow=classic;html=1;rounded=0;entryX=0;entryY=0;entryDx=0;entryDy=0;entryPerimeter=0;" parent="1" source="2UcZvFc60_YvVKQtkJNw-26" target="2UcZvFc60_YvVKQtkJNw-30" edge="1">
          <mxGeometry relative="1" as="geometry">
            <mxPoint x="1100" y="2120" as="sourcePoint" />
            <mxPoint x="1444" y="2151" as="targetPoint" />
          </mxGeometry>
        </mxCell>
        <mxCell id="2UcZvFc60_YvVKQtkJNw-29" value="task.delete.user" style="edgeLabel;resizable=0;html=1;;align=center;verticalAlign=middle;" parent="2UcZvFc60_YvVKQtkJNw-28" connectable="0" vertex="1">
          <mxGeometry relative="1" as="geometry" />
        </mxCell>
        <mxCell id="2UcZvFc60_YvVKQtkJNw-33" value="publish.broker.ack" style="html=1;verticalAlign=bottom;endArrow=open;dashed=1;endSize=8;curved=0;rounded=0;" parent="1" target="2UcZvFc60_YvVKQtkJNw-26" edge="1">
          <mxGeometry x="-0.0011" relative="1" as="geometry">
            <mxPoint x="1320" y="2140" as="sourcePoint" />
            <mxPoint x="1230" y="2140" as="targetPoint" />
            <Array as="points">
              <mxPoint x="1300" y="2140" />
            </Array>
            <mxPoint as="offset" />
          </mxGeometry>
        </mxCell>
        <mxCell id="2UcZvFc60_YvVKQtkJNw-34" value="Local&lt;div&gt;Compensate Transaction&lt;/div&gt;" style="shape=note;size=20;whiteSpace=wrap;html=1;" parent="1" vertex="1">
          <mxGeometry x="1540" y="2160" width="80" height="50" as="geometry" />
        </mxCell>
        <mxCell id="2UcZvFc60_YvVKQtkJNw-35" value="" style="endArrow=none;dashed=1;html=1;dashPattern=1 3;strokeWidth=2;rounded=0;" parent="1" source="2UcZvFc60_YvVKQtkJNw-30" target="2UcZvFc60_YvVKQtkJNw-34" edge="1">
          <mxGeometry width="50" height="50" relative="1" as="geometry">
            <mxPoint x="1520" y="2260" as="sourcePoint" />
            <mxPoint x="1592" y="2260" as="targetPoint" />
          </mxGeometry>
        </mxCell>
        <mxCell id="2UcZvFc60_YvVKQtkJNw-36" value="consume.broker.ack" style="html=1;verticalAlign=bottom;endArrow=open;dashed=1;endSize=8;curved=0;rounded=0;" parent="1" edge="1">
          <mxGeometry relative="1" as="geometry">
            <mxPoint x="1478" y="2219.57" as="sourcePoint" />
            <mxPoint x="1370" y="2219.57" as="targetPoint" />
          </mxGeometry>
        </mxCell>
        <mxCell id="2UcZvFc60_YvVKQtkJNw-37" value="consume.broker.ack" style="html=1;verticalAlign=bottom;endArrow=open;dashed=1;endSize=8;curved=0;rounded=0;exitX=0;exitY=1;exitDx=0;exitDy=0;exitPerimeter=0;" parent="1" edge="1">
          <mxGeometry relative="1" as="geometry">
            <mxPoint x="1215" y="2160" as="sourcePoint" />
            <mxPoint x="1110" y="2160" as="targetPoint" />
          </mxGeometry>
        </mxCell>
      </root>
    </mxGraphModel>
  </diagram>
</mxfile>
